<?xml version="1.0" standalone="no"?>
<!DOCTYPE svg PUBLIC "-//W3C//DTD SVG 20010904//EN"
 "http://www.w3.org/TR/2001/REC-SVG-20010904/DTD/svg10.dtd">
<svg version="1.0" xmlns="http://www.w3.org/2000/svg"
 width="512.000000pt" height="512.000000pt" viewBox="0 0 512.000000 512.000000"
 preserveAspectRatio="xMidYMid meet">

<g transform="translate(0.000000,512.000000) scale(0.100000,-0.100000)"
fill="#000000" stroke="none">
<path d="M2340 4360 c-590 -446 -941 -711 -1029 -775 -53 -39 -148 -111 -211
-161 -63 -49 -225 -172 -360 -273 -135 -101 -247 -185 -249 -187 -3 -3 55
-188 234 -739 68 -209 166 -513 219 -675 52 -162 111 -342 130 -400 19 -58 69
-213 111 -345 42 -132 80 -250 85 -263 l10 -22 1309 0 1310 0 32 103 c34 109
40 130 202 627 58 179 158 487 222 685 65 198 132 405 150 460 18 55 56 174
84 265 29 91 61 191 72 223 11 32 19 64 17 72 -3 12 -269 214 -768 584 -164
121 -199 148 -315 236 -33 25 -100 74 -150 109 -49 35 -127 93 -172 128 -45
34 -102 77 -125 94 -24 17 -161 119 -306 228 -144 108 -266 196 -270 196 -4 0
-109 -77 -232 -170z m209 -421 c17 -6 31 -14 31 -19 0 -11 -47 -77 -72 -103
-45 -44 -67 -59 -110 -72 -71 -21 -76 -8 -29 77 46 84 66 105 107 118 39 11
37 11 73 -1z m198 -24 l28 -25 -35 -31 c-19 -17 -51 -39 -71 -49 -19 -10 -41
-25 -48 -34 -24 -29 -131 -33 -131 -5 0 5 10 20 23 33 12 13 37 44 55 70 35
51 58 64 114 65 26 1 45 -6 65 -24z m-360 -19 c10 -10 -106 -162 -132 -174
-36 -17 -101 -26 -108 -15 -3 4 17 38 44 73 26 36 49 70 49 76 0 15 42 51 65
56 19 4 73 -6 82 -16z m551 -2 c12 -8 22 -21 22 -28 0 -32 -160 -126 -215
-126 -22 0 -65 22 -65 33 0 6 21 30 47 54 84 77 162 102 211 67z m-751 -22
c20 -13 -25 -119 -72 -168 -28 -29 -54 -45 -85 -53 -25 -6 -52 -16 -60 -21 -8
-6 -28 -19 -45 -30 -16 -11 -48 -26 -70 -32 -22 -7 -65 -34 -94 -60 -30 -26
-59 -48 -63 -48 -4 0 -8 35 -9 78 -1 78 -16 70 -18 -11 -1 -45 -42 -129 -73
-151 -20 -14 -23 -14 -31 0 -13 22 -13 109 0 172 13 66 37 92 94 99 31 5 50
14 67 35 40 48 122 78 122 46 0 -7 11 6 25 29 29 48 76 70 117 54 21 -8 25
-15 22 -38 -3 -21 2 -15 20 23 14 29 35 59 48 68 24 17 84 21 105 8z m901 -16
c38 -20 70 -56 50 -56 -8 0 -49 -17 -89 -37 -64 -33 -82 -38 -137 -36 -35 0
-67 4 -70 8 -7 7 14 26 90 82 73 54 110 63 156 39z m172 -61 c26 -13 57 -52
48 -59 -2 -2 -22 -13 -45 -26 -55 -31 -49 -36 11 -10 26 11 70 20 96 20 44 0
52 -4 74 -33 15 -19 26 -36 26 -39 0 -3 -38 -20 -85 -38 -79 -29 -89 -31 -133
-20 -27 6 -61 22 -77 35 l-30 24 35 16 c32 14 32 15 6 10 -15 -3 -41 -9 -57
-12 -41 -8 -97 5 -121 29 l-20 20 24 12 c12 7 32 17 43 24 24 13 104 49 125
56 28 9 51 6 80 -9z m272 -185 c21 -6 50 -26 68 -47 l32 -36 -53 -14 c-67 -17
-78 -28 -18 -19 116 17 238 -59 174 -108 -19 -15 -18 -15 18 -16 69 0 127 -50
127 -110 0 -18 -6 -20 -72 -20 -51 0 -68 -3 -58 -10 8 -5 39 -10 69 -10 79 0
137 -31 151 -78 5 -20 10 -47 10 -60 0 -14 8 -26 23 -31 36 -14 59 -47 64 -96
7 -54 6 -54 -91 -19 -94 34 -131 58 -150 98 -25 53 -22 59 27 53 l42 -6 -55
25 c-65 30 -120 80 -120 109 0 14 -16 32 -45 53 -25 18 -55 47 -66 66 -11 19
-34 40 -51 47 -40 16 -88 57 -88 74 0 8 8 19 18 24 14 9 11 10 -18 11 -52 0
-107 18 -137 44 l-27 23 60 22 c32 12 68 26 79 31 27 12 43 12 87 0z m-934
-27 c-2 -10 -13 -19 -26 -19 -42 -3 -47 -7 -14 -13 43 -8 46 -25 5 -29 -18 -2
-33 -7 -33 -13 0 -10 12 -12 48 -9 16 1 22 -4 22 -19 0 -19 -6 -21 -60 -21
l-60 0 0 63 c0 35 3 67 7 70 3 4 31 7 60 7 47 0 54 -3 51 -17z m91 -13 c18
-31 31 -30 31 2 0 11 7 18 20 18 19 0 21 -5 18 -67 -3 -62 -5 -68 -25 -71 -16
-2 -26 4 -35 22 -14 31 -24 33 -31 6 -3 -12 -14 -20 -26 -20 -18 0 -21 6 -21
39 0 100 31 133 69 71z m-253 12 c7 -4 15 -32 19 -64 8 -62 10 -60 -71 -73
-40 -6 -41 -5 -48 26 -3 17 -6 49 -6 70 0 36 1 38 38 42 20 2 42 4 47 5 6 1
15 -2 21 -6z m461 -67 c21 -93 13 -118 -25 -75 -14 17 -24 19 -59 14 -24 -3
-43 -2 -43 2 0 5 16 33 36 62 27 41 40 52 57 50 17 -2 24 -14 34 -53z m163 0
c15 -9 12 -41 -6 -56 -10 -8 -14 -22 -10 -41 10 -52 -35 -47 -51 5 l-10 32
-11 -28 c-10 -24 -15 -26 -32 -17 -11 6 -20 12 -20 14 0 6 32 111 36 118 4 6
84 -15 104 -27z m-832 -15 c2 -19 11 -43 20 -53 11 -12 12 -21 5 -28 -12 -12
-53 -3 -53 12 0 5 -7 9 -15 9 -9 0 -12 -6 -9 -15 6 -16 -12 -45 -27 -45 -9 0
-39 93 -39 120 0 19 50 39 90 37 21 -2 26 -8 28 -37z m-688 -74 c0 -84 -2 -96
-28 -137 -39 -60 -60 -78 -73 -58 -5 8 -9 25 -10 39 -1 14 -6 -4 -11 -40 -8
-62 -46 -140 -67 -140 -5 0 -18 24 -29 53 -11 28 -22 59 -25 67 -3 9 -6 3 -6
-12 -1 -15 6 -46 15 -68 20 -49 13 -97 -22 -157 -14 -24 -27 -43 -29 -43 -2 0
-11 12 -20 28 l-16 27 6 -29 c3 -15 8 -41 11 -56 7 -34 -30 -124 -48 -118 -7
3 -26 31 -43 63 -24 46 -30 71 -30 121 0 57 3 66 33 96 17 19 32 44 32 56 0
36 25 76 64 103 25 17 38 35 45 65 11 42 50 85 98 107 12 5 27 24 33 42 16 48
87 104 113 88 4 -2 7 -46 7 -97z m548 27 c21 -56 10 -91 -35 -109 -19 -9 -42
-13 -50 -10 -18 7 -56 93 -49 112 10 27 36 14 52 -26 9 -22 22 -40 30 -40 17
0 17 13 4 59 -7 24 -6 39 2 48 17 21 30 11 46 -34z m1162 -67 c0 -24 -3 -57
-6 -74 -6 -27 -9 -30 -25 -21 -11 5 -19 16 -19 24 0 13 -28 28 -46 24 -48 -8
-43 20 11 70 38 35 48 40 65 31 15 -8 20 -21 20 -54z m-1312 -13 c13 -30 17
-54 13 -67 -9 -25 -56 -50 -77 -42 -23 9 -12 41 14 40 26 -1 28 19 7 56 -20
35 -19 60 4 60 12 0 25 -15 39 -47z m622 -4 c0 -17 38 -95 52 -107 8 -6 45
-12 83 -14 l68 -3 -61 -43 c-53 -37 -60 -46 -53 -65 4 -12 11 -41 15 -64 7
-51 -6 -56 -51 -20 -53 44 -64 47 -105 26 -21 -11 -38 -23 -38 -28 0 -5 -9
-11 -20 -14 -26 -7 -25 6 4 70 l24 51 -61 44 -62 43 78 3 c50 2 79 7 82 15 2
7 9 38 15 70 6 31 16 55 21 52 5 -4 9 -11 9 -16z m800 -4 c33 -21 40 -31 40
-58 0 -44 -25 -77 -58 -77 -29 0 -96 36 -90 48 10 22 62 112 65 112 2 0 21
-11 43 -25z m-1535 -65 c20 -40 23 -55 15 -70 -17 -31 -57 -53 -84 -46 -27 7
-70 71 -62 92 9 24 33 15 55 -21 11 -19 25 -35 31 -35 22 0 21 31 -1 66 -22
36 -22 37 -4 50 10 8 20 14 22 14 1 0 14 -23 28 -50z m1651 -25 c4 -9 -6 -33
-21 -55 -36 -52 -48 -61 -65 -50 -17 11 -6 40 35 88 30 35 43 40 51 17z m41
-101 c-26 -37 -26 -37 -7 -62 18 -22 19 -42 2 -42 -13 0 -72 58 -72 70 0 6 16
32 37 56 32 40 38 43 51 30 14 -14 13 -19 -11 -52z m-1828 21 c17 -20 31 -47
31 -60 0 -28 -34 -55 -68 -55 -31 0 -26 34 6 38 28 4 27 10 -8 51 -28 33 -30
61 -5 61 7 0 27 -16 44 -35z m2283 -279 c60 -28 127 -71 141 -91 18 -26 29
-93 16 -100 -5 -4 -31 6 -58 21 -27 14 -55 24 -62 22 -7 -2 2 -11 21 -19 115
-48 154 -87 152 -150 -1 -51 -11 -68 -34 -61 l-22 5 22 -23 c34 -37 46 -86 33
-131 -10 -33 -9 -42 9 -71 26 -44 26 -107 0 -136 -12 -12 -23 -22 -26 -22 -3
0 -28 21 -56 48 -90 86 -113 141 -88 207 8 20 6 38 -5 71 -17 52 -20 114 -5
114 6 0 30 -9 53 -20 l42 -20 -45 39 c-25 22 -49 40 -53 41 -13 0 -37 66 -37
101 0 17 -8 43 -19 57 -20 30 -71 127 -71 138 0 9 53 -2 92 -20z m-1325 -7
c55 -26 66 -49 61 -115 -4 -42 -12 -63 -38 -96 -25 -30 -29 -39 -14 -33 47 20
92 17 165 -14 l74 -31 220 0 c182 0 224 -3 242 -15 13 -9 43 -16 68 -17 51 -1
56 -4 20 -18 -37 -14 -33 -52 24 -252 27 -95 66 -234 86 -308 21 -74 48 -173
61 -219 30 -102 30 -111 2 -144 -50 -58 -169 -86 -288 -69 -36 5 -66 9 -68 7
-1 -1 1 -28 6 -59 5 -30 7 -58 4 -61 -3 -2 -22 9 -44 26 -21 17 -40 30 -41 28
-2 -2 -12 -21 -22 -42 -30 -57 -98 -130 -155 -167 -27 -18 -110 -56 -183 -85
-72 -28 -151 -62 -174 -74 -24 -12 -43 -19 -43 -16 0 3 0 8 1 12 0 5 -10 11
-23 15 -21 5 -21 6 -2 7 16 1 21 8 22 41 3 37 1 40 -23 40 l-25 0 0 -105 c0
-77 3 -105 13 -106 6 0 2 -5 -10 -11 -31 -15 -51 4 -55 50 -3 35 -7 39 -68 69
-36 18 -90 40 -120 49 -200 60 -320 157 -364 296 -5 16 -10 15 -58 -7 -70 -33
-82 -32 -74 3 4 15 10 39 13 53 l5 26 -100 5 c-112 5 -180 31 -216 81 -18 25
-19 32 -8 75 17 65 82 297 153 549 67 235 71 283 29 293 -21 5 -18 7 18 12 24
4 51 13 61 22 15 14 52 16 246 16 223 0 229 1 281 25 70 33 106 40 146 27 27
-9 29 -9 13 1 -10 7 -32 24 -47 39 -24 22 -28 35 -28 78 0 61 26 105 74 126
48 20 133 17 183 -7z m-1531 -26 c4 -10 16 -40 29 -68 34 -75 36 -95 14 -155
-13 -36 -20 -79 -19 -125 0 -74 -9 -103 -31 -90 -9 6 -10 3 -4 -11 15 -35 18
-143 5 -159 -10 -12 -9 -23 4 -55 21 -54 22 -120 0 -120 -13 0 -13 -2 2 -17
40 -40 60 -143 28 -143 -8 0 -24 5 -36 11 -41 22 -27 1 21 -32 57 -39 94 -96
90 -138 -2 -17 4 -35 14 -45 25 -26 47 -70 51 -107 1 -17 12 -39 23 -48 20
-17 73 -86 73 -95 0 -13 -172 -6 -200 9 -39 20 -70 62 -70 96 0 37 12 42 58
28 21 -6 49 -9 62 -7 18 3 -5 14 -78 37 -65 21 -106 39 -112 51 -12 22 -13 87
-2 93 4 3 38 -3 77 -14 38 -10 71 -16 73 -15 1 2 -35 18 -80 36 -104 41 -128
62 -128 110 0 20 6 45 14 55 12 17 17 18 40 7 46 -21 43 -14 -22 46 -57 53
-62 61 -62 99 0 73 15 88 54 56 12 -10 3 3 -20 27 -52 57 -57 73 -39 116 12
30 17 33 33 25 10 -5 25 -17 32 -26 7 -9 21 -20 31 -25 9 -5 -7 27 -37 72 -30
44 -54 90 -54 102 0 33 29 69 52 63 18 -5 18 -4 4 18 -40 61 -34 152 10 169
15 6 29 -4 62 -40 23 -27 42 -45 42 -41 0 11 -48 95 -72 126 -24 32 -23 82 3
115 23 30 57 34 65 9z m3045 -765 c26 -51 25 -99 -4 -127 l-24 -22 -42 46
c-71 77 -100 171 -70 227 10 19 14 18 66 -33 30 -30 63 -71 74 -91z m-141 -37
c0 -5 20 -31 45 -59 49 -54 75 -106 75 -147 0 -29 -26 -85 -39 -85 -4 0 -31
31 -60 69 -45 61 -51 75 -51 119 0 61 10 112 21 112 5 0 9 -4 9 -9z m13 -239
c41 -59 47 -74 47 -119 0 -41 -5 -58 -26 -82 -27 -33 -54 -41 -54 -17 0 8 -16
44 -35 80 -25 48 -35 79 -35 111 0 47 23 95 45 95 6 0 33 -30 58 -68z m-90
-134 c27 -55 46 -124 47 -170 0 -20 -12 -39 -40 -65 -24 -23 -40 -47 -40 -61
0 -37 -26 -89 -54 -108 -32 -20 -37 -16 -53 39 l-11 42 -1 -55 c-2 -106 -32
-160 -88 -160 -20 0 -23 5 -23 43 0 23 -5 49 -10 57 -7 10 -10 -8 -10 -60 0
-41 -6 -86 -13 -99 -15 -31 -54 -59 -89 -65 -26 -4 -28 -2 -28 27 0 44 -16 18
-30 -50 -13 -60 -41 -89 -99 -99 -22 -4 -46 -18 -61 -36 -19 -23 -36 -31 -71
-35 -26 -3 -49 -1 -52 4 -3 5 0 34 8 64 23 83 17 82 -18 -6 -18 -44 -36 -87
-42 -96 -19 -29 -60 -49 -102 -49 l-43 0 21 51 c24 61 20 73 -10 27 -80 -126
-82 -128 -131 -128 -46 0 -65 13 -56 36 4 11 -9 3 -31 -19 -22 -20 -53 -41
-69 -46 -35 -10 -100 8 -96 27 1 8 -12 5 -38 -8 -49 -25 -76 -25 -120 -2 -29
16 -37 17 -59 5 -34 -17 -83 -17 -126 1 -36 15 -46 42 -21 52 8 3 17 12 20 19
3 8 -15 -1 -40 -20 -25 -19 -54 -35 -64 -35 -28 0 -84 26 -105 50 -19 22 -19
23 -1 34 46 28 97 68 93 72 -7 7 -63 -22 -106 -54 -18 -13 -52 -27 -76 -29
-35 -4 -46 -1 -64 18 -26 28 -26 41 -3 62 23 21 126 57 164 57 16 0 47 -9 69
-20 24 -13 48 -18 60 -15 12 4 52 4 91 0 60 -6 69 -10 65 -25 -4 -17 -2 -17
29 -4 43 18 95 18 120 0 18 -14 18 -16 -13 -48 -51 -53 -39 -56 16 -5 27 26
62 49 78 52 15 4 33 8 40 10 6 2 27 0 45 -5 23 -7 54 -5 107 5 40 9 76 13 79
11 2 -3 -3 -23 -12 -46 -9 -22 -16 -44 -16 -48 0 -4 30 25 68 65 53 57 76 74
112 83 28 8 46 8 48 2 1 -5 15 3 31 18 15 16 48 34 72 41 24 7 55 22 69 35 32
28 106 65 114 57 3 -4 6 -25 7 -47 l1 -41 13 49 c17 62 42 96 86 118 40 21
199 173 199 191 0 7 16 29 36 48 34 33 36 33 50 15 13 -18 14 -17 14 20 0 44
44 144 64 144 7 0 17 -12 24 -27 11 -27 11 -26 4 7 -3 19 -6 49 -6 67 0 33 32
113 44 113 4 0 19 -24 33 -52z m-2546 -282 c21 -14 48 -41 61 -60 13 -19 41
-46 63 -62 21 -15 48 -41 59 -58 10 -18 37 -40 60 -50 39 -17 81 -60 79 -81 0
-5 -17 -15 -37 -21 -33 -11 -27 -12 55 -10 90 1 92 0 125 -30 18 -18 49 -34
68 -38 42 -8 114 -47 112 -61 -1 -5 -39 -25 -84 -43 -95 -39 -146 -39 -197 -3
-40 29 -39 47 2 55 19 3 42 12 52 20 15 11 6 11 -51 -1 -75 -16 -118 -12 -146
14 -25 22 -23 58 5 71 18 9 10 11 -46 11 -62 1 -70 4 -104 34 -45 42 -40 61
19 72 43 8 42 9 -32 15 -41 4 -83 11 -93 15 -19 8 -40 44 -50 85 -5 18 -19 30
-52 44 -47 19 -75 55 -75 96 0 20 4 21 84 16 69 -4 91 -9 123 -30z"/>
<path d="M1838 3687 c-5 -10 -8 -37 -7 -60 l1 -42 9 34 c12 40 9 97 -3 68z"/>
<path d="M2380 3540 c0 -5 5 -10 10 -10 6 0 10 5 10 10 0 6 -4 10 -10 10 -5 0
-10 -4 -10 -10z"/>
<path d="M2385 3490 c3 -5 10 -10 16 -10 5 0 9 5 9 10 0 6 -7 10 -16 10 -8 0
-12 -4 -9 -10z"/>
<path d="M2846 3511 c-4 -7 -5 -15 -2 -18 9 -9 19 4 14 18 -4 11 -6 11 -12 0z"/>
<path d="M2990 3490 c0 -5 7 -10 16 -10 8 0 12 5 9 10 -3 6 -10 10 -16 10 -5
0 -9 -4 -9 -10z"/>
<path d="M2170 3500 c-8 -5 -11 -12 -7 -16 4 -4 13 -2 19 4 15 15 7 24 -12 12z"/>
<path d="M3321 3300 c-8 -24 -7 -30 4 -30 17 0 38 36 30 50 -11 18 -23 11 -34
-20z"/>
<path d="M2508 2856 c-9 -7 -20 -29 -23 -50 -6 -30 -4 -40 11 -51 18 -13 19
-10 25 48 3 34 5 63 5 64 -1 1 -9 -4 -18 -11z"/>
<path d="M2600 2800 c0 -58 1 -60 20 -50 23 13 27 65 6 93 -21 28 -26 20 -26
-43z"/>
<path d="M1773 2513 c11 -110 21 -129 80 -151 69 -26 155 -36 200 -24 29 8 44
6 84 -12 85 -40 119 -47 232 -49 l111 -2 0 37 0 38 -83 0 c-51 0 -88 5 -95 12
-7 7 -12 39 -12 75 l0 63 95 0 95 0 0 35 0 35 -356 0 -357 0 6 -57z"/>
<path d="M2640 2535 l0 -35 80 0 80 0 0 -76 0 -75 -57 1 c-107 3 -103 4 -103
-38 l0 -38 98 17 c54 10 123 27 152 38 62 23 124 27 157 8 23 -13 149 -8 221
7 41 10 45 -15 5 -41 -16 -10 -38 -27 -51 -38 -32 -27 -54 -33 -147 -35 -59
-2 -72 -4 -50 -10 17 -4 55 -8 85 -9 l55 -2 -37 -16 c-21 -8 -36 -19 -33 -24
9 -13 -31 -29 -77 -30 -31 -1 -13 -6 67 -21 60 -10 112 -21 114 -24 10 -10
-25 -24 -61 -24 -20 0 -39 -4 -42 -9 -3 -5 -60 -9 -127 -9 -85 0 -124 -4 -129
-13 -11 -17 -78 -5 -112 21 l-29 21 -29 -23 -29 -23 2 -295 2 -295 28 -3 c24
-3 27 -8 27 -38 l0 -34 -70 0 -70 0 0 -45 c0 -40 3 -45 23 -46 21 -1 21 -1 -3
-9 l-25 -8 27 -1 c25 -1 27 2 30 42 l3 42 53 3 c48 3 52 5 52 28 0 28 6 29 80
9 86 -23 182 4 234 66 29 34 50 78 42 87 -3 2 -33 -2 -68 -11 -34 -9 -66 -14
-70 -11 -4 3 3 20 16 37 52 69 76 131 76 201 0 39 4 66 10 66 12 0 61 -34 99
-67 14 -13 29 -19 33 -15 6 6 55 180 122 432 8 30 30 114 50 186 40 145 45
198 20 208 -9 3 -175 6 -370 6 l-354 0 0 -35z"/>
<path d="M1725 2368 c-11 -34 -58 -198 -94 -328 -79 -287 -94 -350 -86 -358 4
-4 10 -1 12 6 5 14 114 17 128 3 6 -6 16 -5 27 3 14 10 17 51 22 349 3 185 3
337 1 337 -3 0 -8 -6 -10 -12z"/>
<path d="M1769 2355 c-2 -16 -3 -171 -1 -342 3 -291 4 -313 20 -313 10 0 23
-5 30 -12 9 -9 15 -9 24 0 7 7 26 12 44 12 17 0 36 6 42 13 8 9 -12 102 -69
332 -93 374 -85 348 -90 310z"/>
<path d="M3292 2046 c-45 -178 -82 -330 -82 -339 0 -11 9 -13 44 -10 24 3 46
1 50 -5 4 -6 19 -5 43 3 l38 13 0 331 c0 182 -2 331 -5 331 -4 0 -43 -146 -88
-324z"/>
<path d="M3421 2059 c1 -173 4 -325 8 -339 7 -24 9 -25 79 -21 47 2 78 -1 87
-9 21 -17 20 -7 -11 113 -31 123 -155 560 -160 566 -2 2 -4 -137 -3 -310z"/>
<path d="M1834 2296 c11 -9 24 -16 30 -16 12 0 7 5 -24 19 -24 11 -24 11 -6
-3z"/>
<path d="M1840 2243 c0 -5 9 -40 19 -78 11 -39 38 -142 61 -230 23 -88 45
-164 49 -168 4 -4 32 8 62 28 29 19 57 35 61 35 3 0 4 -24 1 -52 -6 -61 20
-147 62 -208 14 -20 25 -39 25 -42 0 -15 -34 -16 -77 -3 -26 8 -49 13 -51 10
-16 -15 69 -111 117 -131 61 -26 188 -13 216 21 6 7 22 15 35 17 25 3 25 3 31
151 4 82 10 208 14 279 7 125 6 131 -12 126 -26 -7 -28 29 -2 37 30 10 23 42
-12 54 -46 16 -70 14 -107 -9 -39 -24 -92 -27 -92 -5 0 19 -2 19 -46 0 l-35
-14 -6 29 c-4 21 -11 30 -24 30 -11 0 -28 9 -39 20 -12 12 -33 20 -54 20 -49
0 -57 20 -9 21 86 3 96 15 13 16 -79 1 -137 13 -150 32 -7 12 -50 24 -50 14z"/>
<path d="M3033 2173 c9 -2 25 -2 35 0 9 3 1 5 -18 5 -19 0 -27 -2 -17 -5z"/>
<path d="M2453 1402 c-53 -2 -63 -6 -63 -21 0 -28 12 -33 28 -10 11 16 24 20
56 18 57 -3 80 0 72 8 -8 8 -15 9 -93 5z"/>
</g>
</svg>
